<?xml version="1.0" encoding="UTF-8"?>
<svg id="Layer_1" xmlns="http://www.w3.org/2000/svg" viewBox="0 0 274.83 404.54">
  <defs>
    <style>
      .cls-1 {
        fill: #009cb1;
      }

      .cls-2 {
        fill: #ffb115;
      }
    </style>
  </defs>
  <circle class="cls-2" cx="229.59" cy="45.24" r="45.24"/>
  <path class="cls-1" d="M0,194.78v206.79c0,1.64,1.33,2.96,2.96,2.96h64.03c4.59,0,8.3-3.72,8.29-8.31l-.52-199.18c0-3.81,3.08-6.9,6.89-6.9h102.75c3.8,0,6.89,3.08,6.89,6.89v199.22c0,4.58,3.71,8.29,8.29,8.29h64.05c1.64,0,2.96-1.33,2.96-2.96V136.37c0-3.8-3.08-6.89-6.89-6.89H81.64c-3.8,0-6.89-3.08-6.89-6.89v-3.32c0-4,.73-8.41,2.21-13.21,1.45-4.8,3.84-9.3,7.14-13.52,3.3-4.2,7.6-7.7,12.92-10.5,5.31-2.8,12-4.2,20.07-4.2,2.39,0,4.85.3,7.36.9,3.63.86,7.26-1.45,8.16-5.07l14.71-59.44c.93-3.76-1.41-7.54-5.18-8.38-1.78-.4-3.81-.82-6.09-1.27-6.04-1.2-12.36-1.8-18.96-1.8-15.77,0-30.78,2.9-45.07,8.7-14.29,5.81-26.76,13.92-37.39,24.33-10.62,10.42-19.05,22.72-25.28,36.94C3.11,86.94,0,102.46,0,119.28v75.51Z"/>
</svg>